# xmcd
#
# Track frame offsets:
#	192
#	20777
#	34530
#	52050
#	71350
#	87065
#	107580
#	119612
#	135197
#	145657
#	163420
#	180230
#	204620
#	227465
#	247502
#	261865
#
# Disc length: 3756 seconds
#
# Revision: 0
# Processed by: cddbd v1.5PL3 Copyright (c) Steve Scherf et al.
# Submitted via: dBpowerAMP V4.0
#
DISCID=cd0eaa10
DTITLE=Various Artist - SuperSoulBlues,Vol3;Paula97453-0010-2
DYEAR=1991
DGENRE=Blues
TTITLE0=Baby,Baby(JohnLeeHooker,Detroit,MI) - JohnLeeHooker,Detroit,MI
TTITLE1=NeverBeenToSpain(HoytAxton;TinaTurner,Nutbush,TN) - TinaTurner,Nutbush,TN
TTITLE2=Messin'WithMyMind(GJackson&RAltonMiller;BarbaraCarr) - BarbaraCarr
TTITLE3=CumminsPrisonFarm(SLewis;TedTaylor) - TedTaylor
TTITLE4=BornWithTheBlues(MemphisSlim) - MemphisSlim
TTITLE5=Sheheatin'OnYou(BJones,LMcFarland,CBlake;CiceroBlake) - CiceroBlake
TTITLE6=WhenTheDealGoesDown(SLewis;LittleJohnnyTaylor) - LittleJohnnyTaylor
TTITLE7=BoozeInTheBottle&DukeColeman;TheCarterBrothers) - TheCarterBrothers
TTITLE8=I'mGonnaLeaveYou(LWhitfield,JackieJohnson;BobbyPowell) - BobbyPowell
TTITLE9=HarpAndSoul(FFrost,AWilliams;FrankFrost) - FrankFrost
TTITLE10=DoNoRight(SJoseph;TBoneWalker) - TBoneWalker
TTITLE11=KissAndSayGoodbye(WLovett;JerryGreen) - JerryGreen
TTITLE12=ICanSeeClearlyNow(JohnnyNash;RicHarris) - RicHarris
TTITLE13=ColdWoman(ForstNelsonJr;ErnieJohnson) - ErnieJohnson
TTITLE14=RightOnJody(BPatterson,JStrickland,RBell;BobbyPatterson) - BobbyPatterson
TTITLE15=MakeUpForLostTime(PhilPerry;TheMontclairs) - TheMontclairs
EXTD=corrected - more info
EXTT0=
EXTT1=
EXTT2=
EXTT3=
EXTT4=
EXTT5=
EXTT6=
EXTT7=
EXTT8=
EXTT9=
EXTT10=
EXTT11=
EXTT12=
EXTT13=
EXTT14=
EXTT15=
PLAYORDER=
